<?xml version="1.0" standalone="no"?>
<!DOCTYPE svg PUBLIC "-//W3C//DTD SVG 20010904//EN"
 "http://www.w3.org/TR/2001/REC-SVG-20010904/DTD/svg10.dtd">
<svg version="1.0" xmlns="http://www.w3.org/2000/svg"
 width="500.000000pt" height="500.000000pt" viewBox="0 0 500.000000 500.000000"
 preserveAspectRatio="xMidYMid meet">

<g transform="translate(0.000000,500.000000) scale(0.100000,-0.100000)"
fill="#000000" stroke="none">
<path d="M0 2500 l0 -2500 2500 0 2500 0 0 2500 0 2500 -2500 0 -2500 0 0
-2500z m2619 1346 c88 -45 174 -149 231 -277 l24 -54 150 0 c120 0 162 -4 203
-18 236 -83 256 -332 50 -620 l-35 -49 34 -81 c18 -45 36 -101 40 -124 4 -26
12 -43 20 -43 27 0 66 -25 80 -51 25 -50 19 -59 -36 -59 l-50 0 0 -36 c0 -33
2 -36 24 -30 13 3 31 9 40 12 9 3 16 1 16 -5 0 -14 -33 -31 -62 -31 -17 0 -29
-12 -47 -45 -32 -60 -77 -98 -148 -125 -51 -19 -70 -21 -153 -16 -52 3 -107 9
-121 12 -23 5 -28 1 -40 -28 -7 -18 -14 -36 -16 -40 -3 -4 13 -8 34 -10 33 -3
38 -7 41 -30 3 -25 0 -28 -27 -28 -26 0 -31 -4 -31 -24 0 -19 6 -25 28 -28 19
-2 28 -9 30 -25 3 -17 -2 -22 -25 -25 -24 -3 -28 -8 -28 -33 0 -25 4 -30 28
-33 21 -3 27 -9 27 -28 0 -22 -3 -24 -55 -24 l-55 0 0 111 c0 71 -4 108 -10
104 -6 -3 -10 -52 -10 -111 l0 -104 -30 0 c-26 0 -30 4 -36 38 -11 64 -23 72
-24 15 0 -50 -2 -53 -25 -53 -22 0 -25 4 -25 35 0 53 -30 44 -46 -15 -13 -45
-51 -61 -88 -36 -14 9 -26 25 -26 35 0 14 -10 22 -32 26 -86 19 -200 125 -260
241 l-33 64 -71 -6 c-128 -12 -293 34 -351 97 -47 52 -68 110 -68 187 0 51 -4
72 -12 72 -7 0 -13 7 -13 15 0 8 7 15 15 15 8 0 15 9 15 19 0 11 4 21 9 23 5
2 27 39 49 83 36 72 64 113 154 227 l27 34 -49 94 c-164 313 -141 565 58 641
44 16 78 21 147 20 50 -1 106 -5 125 -9 33 -8 37 -6 90 48 52 53 110 92 170
111 42 14 124 2 179 -25z m1854 -628 c56 -30 64 -93 17 -140 -27 -26 -36 -30
-67 -25 -52 9 -76 36 -76 88 0 70 65 110 126 77z m-504 -363 c64 -33 39 -135
-32 -135 -85 0 -106 114 -27 143 24 9 29 8 59 -8z m-2881 -218 c2 -10 -3 -17
-12 -17 -18 0 -29 16 -21 31 9 14 29 6 33 -14z m498 12 c10 -17 -13 -36 -27
-22 -12 12 -4 33 11 33 5 0 12 -5 16 -11z m2330 0 c10 -17 -13 -36 -27 -22
-12 12 -4 33 11 33 5 0 12 -5 16 -11z m324 -129 c0 -118 -2 -140 -15 -140 -13
0 -15 22 -15 140 0 118 2 140 15 140 13 0 15 -22 15 -140z m-3368 3 l3 -118
73 -3 c104 -4 90 -22 -18 -22 l-90 0 0 130 c0 108 3 130 15 130 12 0 15 -22
17 -117z m2898 78 c0 -14 8 -21 25 -23 33 -4 33 -22 0 -26 -25 -3 -26 -5 -23
-75 l3 -72 30 0 c41 -1 38 -19 -5 -23 -47 -5 -60 16 -60 100 0 53 -3 68 -14
68 -24 0 -30 21 -7 27 12 3 21 13 21 24 0 11 7 19 15 19 8 0 15 -9 15 -19z
m-2682 -124 c2 -82 0 -97 -13 -97 -12 0 -15 17 -15 101 0 76 3 100 13 97 8 -3
13 -35 15 -101z m98 88 c5 -12 9 -12 30 1 28 19 92 11 101 -12 5 -13 7 -13 22
0 48 43 125 26 141 -33 15 -55 13 -141 -4 -141 -10 0 -15 20 -18 76 -4 81 -12
94 -60 94 -45 0 -58 -23 -58 -101 0 -55 -3 -69 -15 -69 -12 0 -15 14 -15 66 0
84 -11 104 -55 104 -52 0 -65 -20 -65 -101 0 -55 -3 -69 -15 -69 -12 0 -15 18
-15 100 0 62 4 100 10 100 6 0 13 -7 16 -15z m394 -85 c0 -60 -4 -100 -10
-100 -6 0 -10 40 -10 100 0 60 4 100 10 100 6 0 10 -40 10 -100z m1930 84 c0
-14 2 -14 22 0 31 22 70 20 102 -5 24 -19 26 -26 26 -100 0 -46 -4 -79 -10
-79 -6 0 -10 28 -10 63 0 77 -18 107 -62 107 -53 0 -68 -23 -68 -102 0 -54 -3
-68 -15 -68 -12 0 -15 18 -15 100 0 82 3 100 15 100 8 0 15 -7 15 -16z m400
-84 c0 -60 -4 -100 -10 -100 -6 0 -10 40 -10 100 0 60 4 100 10 100 6 0 10
-40 10 -100z m205 75 c22 -21 25 -33 25 -100 0 -60 -3 -75 -15 -75 -8 0 -15 5
-15 10 0 7 -6 7 -19 0 -31 -16 -79 -12 -101 10 -44 44 -8 90 70 90 41 0 50 3
50 18 0 10 -5 23 -12 30 -15 15 -84 16 -93 2 -7 -11 -25 -4 -25 10 0 11 48 28
83 29 17 1 37 -9 52 -24z m-1085 -455 c0 -20 -5 -30 -15 -30 -12 0 -15 -19
-15 -110 l0 -110 -30 0 -30 0 0 110 c0 91 -3 110 -15 110 -15 0 -21 40 -8 53
3 4 30 7 60 7 52 0 53 0 53 -30z"/>
<path d="M2403 3799 c-23 -11 -61 -41 -84 -67 l-43 -46 25 -9 c94 -38 222
-104 301 -155 l93 -60 63 16 c34 9 62 20 62 25 0 5 -19 45 -42 89 -40 78 -141
198 -166 198 -13 0 -16 -26 -13 -111 3 -66 -13 -89 -64 -89 -38 0 -65 28 -65
67 0 30 46 33 55 3 9 -29 25 -25 25 6 0 15 -8 33 -17 40 -15 11 -16 16 -5 31
20 29 25 43 18 50 -3 4 -12 -1 -19 -11 -20 -28 -53 -16 -49 17 3 34 -16 35
-75 6z"/>
<path d="M1912 3644 c-150 -75 -159 -271 -25 -541 25 -51 49 -93 52 -93 3 0
23 16 43 35 25 24 39 48 43 73 33 207 72 345 131 466 19 38 31 72 28 75 -3 3
-53 7 -112 9 -100 3 -111 2 -160 -24z"/>
<path d="M2207 3564 c-19 -38 -49 -114 -66 -169 -31 -101 -63 -255 -53 -255 3
0 28 17 56 38 56 42 190 124 276 168 48 26 55 33 58 63 l3 34 70 -7 c40 -3 69
-2 69 3 0 23 -280 174 -347 187 -31 6 -32 5 -66 -62z"/>
<path d="M2917 3463 c-14 -3 -17 -11 -13 -26 3 -12 16 -64 29 -116 20 -86 26
-98 80 -160 44 -50 153 -202 194 -270 6 -10 39 30 79 98 88 150 105 271 51
364 -22 37 -40 52 -94 79 -62 30 -73 32 -187 35 -67 1 -129 -1 -139 -4z"/>
<path d="M2787 3438 c-21 -6 -37 -14 -35 -18 2 -5 30 -32 63 -61 39 -34 61
-48 63 -38 4 19 -32 122 -44 125 -5 1 -26 -3 -47 -8z"/>
<path d="M2628 3384 c-27 -14 -28 -18 -28 -89 0 -89 -12 -105 -76 -105 l-44 0
0 66 0 66 -67 -37 c-88 -48 -247 -153 -300 -200 l-43 -37 0 -115 0 -116 124
-125 c117 -117 126 -124 155 -117 39 8 91 -3 91 -20 0 -9 -13 -11 -47 -7 l-48
5 30 -24 c17 -14 54 -42 83 -63 l52 -38 0 106 0 106 25 0 25 0 0 -119 c0 -121
7 -144 35 -121 12 10 15 39 15 127 l0 115 80 -4 c92 -4 111 -16 119 -78 l6
-41 43 32 c24 18 48 44 54 58 16 41 22 373 9 486 -11 95 -14 102 -49 139 -64
67 -184 166 -201 166 -9 -1 -28 -8 -43 -16z m-53 -504 c0 -10 -12 -16 -37 -18
-33 -3 -38 0 -38 18 0 18 5 21 38 18 25 -2 37 -8 37 -18z"/>
<path d="M2530 3289 c0 -37 4 -58 10 -54 6 3 10 31 10 61 0 30 -4 54 -10 54
-6 0 -10 -27 -10 -61z"/>
<path d="M2974 3079 c8 -53 9 -360 0 -405 -3 -19 -3 -34 1 -34 14 0 195 183
195 197 0 28 -177 283 -197 283 -3 0 -3 -18 1 -41z"/>
<path d="M1987 2972 c-14 -16 -14 -19 2 -41 l19 -24 4 41 c4 46 -1 51 -25 24z"/>
<path d="M1888 2868 c-50 -61 -121 -174 -146 -233 -17 -41 -18 -51 -6 -53 21
-5 17 -32 -5 -32 -15 0 -20 -9 -22 -37 -2 -21 -2 -54 1 -73 4 -29 9 -35 28
-33 26 3 29 -12 5 -27 -16 -9 -13 -15 28 -53 60 -56 134 -79 251 -80 49 0 90
2 93 5 3 3 -5 37 -17 76 -18 55 -26 70 -38 65 -26 -11 -79 -15 -105 -9 -29 7
-65 59 -65 94 0 62 60 111 121 98 29 -5 31 -4 25 17 -3 12 -9 64 -12 115 -7
87 -9 96 -46 147 -22 30 -43 55 -47 55 -5 0 -24 -19 -43 -42z m-48 -348 c0
-118 -2 -140 -15 -140 -13 0 -15 22 -15 140 0 118 2 140 15 140 13 0 15 -22
15 -140z"/>
<path d="M3135 2716 c-33 -34 -80 -79 -105 -100 -45 -37 -45 -37 -24 -54 76
-60 49 -168 -46 -181 -42 -6 -44 -8 -62 -60 -22 -66 -20 -67 78 -76 131 -13
236 28 279 108 19 35 19 38 2 66 -22 38 -22 93 2 122 14 18 16 30 10 60 -12
52 -60 179 -68 178 -3 0 -33 -29 -66 -63z m5 -115 c0 -14 8 -21 25 -23 33 -4
33 -22 0 -26 -25 -3 -26 -5 -23 -75 l3 -72 30 0 c41 -1 38 -19 -5 -23 -47 -5
-60 16 -60 100 0 53 -3 68 -14 68 -24 0 -30 21 -7 27 12 3 21 13 21 24 0 11 7
19 15 19 8 0 15 -9 15 -19z"/>
<path d="M2076 2688 c11 -83 25 -164 36 -215 10 -47 15 -54 45 -64 47 -15 85
-5 81 23 -2 17 -14 25 -49 34 -63 15 -69 20 -69 54 0 35 31 60 75 60 30 0 30
1 -43 75 -40 41 -75 75 -78 75 -2 0 -2 -19 2 -42z"/>
<path d="M2640 2556 l0 -66 53 0 c63 0 87 19 87 67 0 41 -21 56 -86 61 l-54 4
0 -66z"/>
<path d="M1936 2528 c-9 -12 -16 -26 -16 -30 0 -5 29 -8 65 -8 67 0 74 5 55
41 -16 28 -84 27 -104 -3z"/>
<path d="M2152 2538 c-17 -21 1 -38 49 -49 53 -12 69 -25 69 -55 0 -32 -36
-54 -87 -54 -24 0 -43 -4 -43 -8 0 -17 32 -102 40 -107 22 -14 333 80 327 98
-1 5 -15 16 -30 25 -22 14 -31 14 -47 4 -24 -15 -79 -16 -116 -2 -40 16 -17
33 24 19 36 -13 85 -4 80 13 -3 7 -24 23 -49 35 -24 13 -56 38 -70 55 -23 28
-34 33 -81 36 -37 2 -58 -1 -66 -10z"/>
<path d="M2955 2538 c-5 -18 -25 -117 -25 -128 0 -17 36 -11 64 11 30 24 35
72 10 107 -17 24 -42 29 -49 10z"/>
<path d="M3330 2520 c0 -28 3 -30 35 -30 39 0 46 17 17 43 -30 27 -52 22 -52
-13z"/>
<path d="M3271 2504 c0 -11 3 -14 6 -6 3 7 2 16 -1 19 -3 4 -6 -2 -5 -13z"/>
<path d="M2884 2495 c-3 -8 -4 -20 -2 -27 3 -7 7 -1 10 15 6 29 1 36 -8 12z"/>
<path d="M2741 2416 l-104 -61 73 -33 c109 -50 119 -49 142 20 17 50 18 61 6
96 l-13 39 -104 -61z"/>
<path d="M1920 2460 c0 -20 49 -60 72 -60 13 0 33 7 44 15 12 8 25 11 29 7 5
-4 5 1 2 11 -4 10 -7 23 -7 28 0 5 -31 9 -70 9 -42 0 -70 -4 -70 -10z"/>
<path d="M3271 2454 c0 -11 3 -14 6 -6 3 7 2 16 -1 19 -3 4 -6 -2 -5 -13z"/>
<path d="M2640 2440 c0 -20 1 -20 33 -4 45 23 45 24 4 24 -30 0 -37 -4 -37
-20z"/>
<path d="M2535 2313 c-42 -23 -209 -78 -278 -93 l-58 -12 33 -60 c42 -77 124
-163 180 -188 55 -25 121 -25 176 0 l42 19 0 76 0 76 27 -3 c21 -2 29 -11 37
-38 l10 -35 5 35 c5 27 11 36 29 38 20 3 62 64 62 90 0 6 -26 20 -57 33 -32
12 -84 35 -115 51 -32 15 -59 28 -60 28 -2 -1 -16 -8 -33 -17z m55 -88 c0 -16
-6 -25 -15 -25 -12 0 -15 -18 -15 -100 l0 -100 -25 0 -25 0 0 100 c0 82 -3
100 -15 100 -9 0 -15 9 -15 25 0 24 3 25 55 25 52 0 55 -1 55 -25z"/>
<path d="M4009 2454 c-31 -38 44 -73 82 -38 10 9 19 25 19 36 0 15 -8 18 -44
18 -28 0 -48 -6 -57 -16z"/>
</g>
</svg>
